<?xml version="1.0" encoding="iso-8859-1"?>
<!-- Uploaded to: SVG Repo, www.svgrepo.com, Generator: SVG Repo Mixer Tools -->
<svg fill="#DDDDDD" height="800px" width="800px" version="1.1" id="Layer_1" xmlns="http://www.w3.org/2000/svg" xmlns:xlink="http://www.w3.org/1999/xlink" 
	 viewBox="0 0 512 512" xml:space="preserve">
<g transform="translate(1 1)">
	<g>
		<g>
			<path d="M284.867,109.933c0-18.773-15.36-34.133-34.133-34.133S216.6,91.16,216.6,109.933s15.36,34.133,34.133,34.133
				S284.867,128.707,284.867,109.933z M250.733,127c-9.387,0-17.067-7.68-17.067-17.067s7.68-17.067,17.067-17.067
				c9.387,0,17.067,7.68,17.067,17.067S260.12,127,250.733,127z"/>
			<path d="M370.2,306.2c0-5.12-3.413-8.533-8.533-8.533c-61.379,0-84.056,43.536-85.278,82.021l-8.915,9.472
				c2.26-63.069,1.623-129.505-5.769-169.867c12.654-3.746,22.187-13.847,24.869-26.586c13.653,5.12,27.307,2.56,38.4-8.533
				c10.24-10.24,11.947-20.48,11.093-28.16c-0.853-3.413-0.853-6.827-2.56-10.24c16.213-3.413,28.16-17.92,28.16-35.84
				c0-17.067-11.947-31.573-28.16-34.987c1.707-3.413,2.56-6.827,2.56-10.24c0.853-7.68-0.853-18.773-11.093-29.013
				c-11.093-11.093-25.6-14.507-38.4-8.533C282.307,10.947,267.8-1,250.733-1s-31.573,11.947-34.987,28.16
				c-3.413-0.853-6.827-2.56-10.24-2.56c-7.68-0.853-18.773,0.853-29.013,11.093C165.4,45.933,164.547,57.027,165.4,64.707
				c0.853,3.413,1.707,6.827,2.56,9.387c-16.213,3.413-28.16,18.773-28.16,35.84c0,17.92,11.947,32.427,27.307,35.84
				c-0.853,2.56-2.56,5.973-2.56,9.387c-0.853,7.68,0.853,18.773,11.093,29.013c11.947,11.947,26.453,13.653,39.253,8.533
				c2.983,14.17,14.439,25.079,29.242,27.605c3.995,21.666,5.97,52.686,6.495,87.338c-3.326-3.159-6.274-5.433-8.578-7.01
				c-2.022-37.912-24.999-79.773-85.185-79.773c-5.12,0-8.533,3.413-8.533,8.533c0,61.476,50.694,84.719,84.011,85.319
				c3.474,2.487,10.813,7.946,18.421,18.867c-0.24,58.196-3.89,122.206-8.566,168.027c-0.853,5.12,3.413,8.533,8.533,9.387
				c4.267,0,7.68-3.413,9.387-7.68c2.325-23.771,4.571-54.04,6.172-86.463c12.548-8.588,20.597-19.659,24.147-25.534
				C323.643,388.914,370.2,365.115,370.2,306.2z M231.96,184.173c0-0.853,0.853-4.267,0.853-5.12
				c0.853-5.973-1.707-8.533-4.267-10.24c-1.707-0.853-2.56-0.853-4.267-0.853c-2.56,0-4.267,0.853-5.973,2.56
				c-7.68,7.68-19.627,11.947-29.867,1.707c-5.12-4.267-6.827-9.387-5.973-14.507s3.413-10.24,7.68-14.507
				c2.56-2.56,3.413-6.827,1.707-10.24c-0.853-2.56-4.267-5.12-10.24-4.267c-0.853,0-3.413,0.853-5.12,0.853
				c-11.093,0-19.627-9.387-19.627-19.627s8.533-18.773,19.627-19.627c0.853,0,4.267,0.853,5.12,0.853
				c5.973,1.707,9.387-0.853,10.24-3.413c1.707-3.413,1.707-7.68-0.853-10.24c-5.12-5.12-7.68-10.24-8.533-14.507
				c-0.853-5.973,1.707-10.24,5.973-15.36c4.267-4.267,9.387-6.827,15.36-5.973c4.267,0.853,10.24,3.413,14.507,8.533
				c2.56,2.56,6.827,2.56,10.24,0.853c2.56-0.853,5.12-4.267,3.413-10.24c0-0.853-0.853-3.413-0.853-5.12
				c0-11.093,8.533-19.627,19.627-19.627c11.093,0,19.627,8.533,19.627,20.48c0,0.853-0.853,4.267-0.853,5.12
				c-0.853,5.973,1.707,8.533,4.267,10.24c3.413,1.707,7.68,0.853,10.24-1.707c4.267-5.12,9.387-7.68,14.507-8.533
				c5.12-0.853,10.24,1.707,14.507,5.973c4.267,5.12,6.827,10.24,5.973,15.36c0,5.12-3.413,10.24-6.827,13.653
				c-2.56,2.56-3.413,6.827-1.707,10.24c1.707,2.56,4.267,5.12,10.24,4.267c0.853,0,3.413-0.853,5.12-0.853
				c10.24,0,18.773,8.533,18.773,19.627s-8.533,19.627-18.773,19.627c-0.853,0-4.267-0.853-5.12-0.853
				c-5.973-0.853-8.533,1.707-10.24,4.267c-1.707,3.413-0.853,7.68,1.707,10.24c4.267,4.267,6.827,9.387,7.68,14.507
				s-1.707,10.24-5.973,14.507c-12.8,12.8-26.453,0.853-29.013-1.707s-6.827-3.413-10.24-1.707c-2.56,1.707-5.12,4.267-4.267,10.24
				c0,0.853,0.853,3.413,0.853,5.12c0,10.24-8.533,18.773-19.627,18.773C240.493,202.947,231.96,194.413,231.96,184.173z
				 M166.253,237.933c46.08,4.267,56.32,39.253,58.88,58.88C204.653,293.4,170.52,279.747,166.253,237.933z M293.4,373.613
				c2.56-20.48,12.8-54.613,58.88-58.88C348.867,356.547,314.733,370.2,293.4,373.613z"/>
		</g>
	</g>
</g>
</svg>
